<?xml version="1.0" encoding="UTF-8" standalone="no"?>
<!-- Created with Inkscape (http://www.inkscape.org/) -->

<svg
   width="210mm"
   height="297mm"
   viewBox="0 0 210 297"
   version="1.1"
   id="svg1"
   inkscape:version="1.3.2 (091e20e, 2023-11-25)"
   sodipodi:docname="logo.svg"
   xmlns:inkscape="http://www.inkscape.org/namespaces/inkscape"
   xmlns:sodipodi="http://sodipodi.sourceforge.net/DTD/sodipodi-0.dtd"
   xmlns="http://www.w3.org/2000/svg"
   xmlns:svg="http://www.w3.org/2000/svg">
  <sodipodi:namedview
     id="namedview1"
     pagecolor="#ffffff"
     bordercolor="#000000"
     borderopacity="0.25"
     inkscape:showpageshadow="2"
     inkscape:pageopacity="0.0"
     inkscape:pagecheckerboard="0"
     inkscape:deskcolor="#d1d1d1"
     inkscape:document-units="mm"
     inkscape:zoom="0.396875"
     inkscape:cx="396.85039"
     inkscape:cy="560.62992"
     inkscape:window-width="1392"
     inkscape:window-height="1212"
     inkscape:window-x="0"
     inkscape:window-y="25"
     inkscape:window-maximized="0"
     inkscape:current-layer="layer1" />
  <defs
     id="defs1" />
  <g
     inkscape:label="Layer 1"
     inkscape:groupmode="layer"
     id="layer1">
    <polygon
       points="155.3,142 83.7,142 13.9,72.1 85.4,0.5 155.3,70.4 "
       id="polygon1"
       transform="matrix(0.26458333,0,0,0.26458333,37.597292,93.265625)" />
    <polygon
       points="356.8,415 286.9,345.2 286.9,273.6 358.5,273.6 428.4,343.4 "
       id="polygon2"
       transform="matrix(0.26458333,0,0,0.26458333,37.597292,93.265625)" />
    <polygon
       points="39.3,157.1 39.3,258.4 170.5,258.4 170.5,389.6 271.7,389.6 271.7,258.4 402.9,258.4 402.9,157.1 271.7,157.1 271.7,26 170.5,26 170.5,157.1 "
       id="polygon3"
       transform="matrix(0.26458333,0,0,0.26458333,37.597292,93.265625)" />
    <path
       d="m 119.43292,108.24104 h -4.78896 v -8.04333 h 4.78896 v 1.74625 h -2.61938 v 1.27 h 2.40771 v 1.74625 h -2.40771 v 1.53458 h 2.61938 c 0,-0.0265 0,1.74625 0,1.74625 z"
       id="path3"
       style="stroke-width:0.264583" />
    <path
       d="m 124.35417,108.24104 -1.64042,-5.79437 h -0.0529 c 0.0265,0.15875 0.0265,0.34395 0.0529,0.60854 0.0265,0.26458 0.0265,0.52916 0.0529,0.82021 0.0264,0.29104 0.0264,0.58208 0.0264,0.84666 v 3.4925 h -1.93145 v -8.01687 h 2.91041 l 1.69334,5.715 h 0.0529 l 1.64042,-5.715 h 2.91042 v 8.04333 h -2.01084 v -3.54542 c 0,-0.26458 0,-0.52916 0,-0.8202 0,-0.29105 0.0265,-0.55563 0.0265,-0.82021 0,-0.26459 0.0265,-0.47625 0.0265,-0.60854 h -0.0529 l -1.61396,5.79437 z"
       id="path4"
       style="stroke-width:0.264583" />
    <path
       d="m 134.54062,100.19771 c 1.03188,0 1.79917,0.21166 2.30188,0.66146 0.50271,0.44979 0.76729,1.08479 0.76729,1.905 0,0.37041 -0.0529,0.71437 -0.15875,1.05833 -0.10583,0.34396 -0.26458,0.635 -0.50271,0.89958 -0.23812,0.26459 -0.55562,0.47625 -0.9525,0.635 -0.39687,0.15875 -0.87312,0.23813 -1.45521,0.23813 h -0.635 v 2.67229 h -2.16958 v -8.06979 z m -0.0529,1.74625 h -0.55563 v 1.85208 h 0.42334 c 0.1852,0 0.37041,-0.0265 0.52916,-0.10583 0.15875,-0.0529 0.29104,-0.15875 0.39688,-0.3175 0.10583,-0.15875 0.13229,-0.34396 0.13229,-0.58209 0,-0.23812 -0.0794,-0.44979 -0.23813,-0.60854 -0.13229,-0.15875 -0.37041,-0.23812 -0.68791,-0.23812 z"
       id="path5"
       style="stroke-width:0.264583" />
    <path
       d="m 143.8275,108.24104 -0.39688,-1.50812 h -2.61937 l -0.39688,1.50812 h -2.38125 l 2.61938,-8.09625 h 2.91042 l 2.67229,8.09625 z m -0.87313,-3.30729 -0.34395,-1.32292 c -0.0265,-0.13229 -0.0794,-0.34396 -0.15875,-0.60854 -0.0794,-0.26458 -0.1323,-0.52917 -0.21167,-0.82021 -0.0794,-0.29104 -0.13229,-0.52916 -0.15875,-0.71437 -0.0265,0.18521 -0.0794,0.42333 -0.13229,0.68791 -0.0529,0.26459 -0.13229,0.52917 -0.18521,0.79375 -0.0529,0.26459 -0.13229,0.47625 -0.15875,0.66146 l -0.34396,1.32292 z"
       id="path6"
       style="stroke-width:0.264583" />
    <path
       d="m 150.62729,108.24104 h -2.16958 v -6.27062 h -1.95792 v -1.77271 h 6.11188 v 1.77271 h -1.95792 v 6.27062 z"
       id="path7"
       style="stroke-width:0.264583" />
    <path
       d="m 160.62854,108.24104 h -2.19604 v -3.28083 h -2.54 v 3.28083 h -2.19604 v -8.04333 h 2.19604 v 2.98979 h 2.54 v -2.98979 h 2.19604 z"
       id="path8"
       style="stroke-width:0.264583" />
    <path
       d="m 165.25875,103.16104 1.37583,-2.98979 h 2.35479 l -2.64583,4.92125 v 3.14854 h -2.19604 v -3.09562 l -2.64583,-4.97417 h 2.38125 z"
       id="path9"
       style="stroke-width:0.264583" />
    <path
       d="m 121.6025,111.46896 -2.64583,8.04333 h -2.56646 l -2.61938,-8.04333 h 2.43417 l 1.08479,4.07458 c 0.0265,0.15875 0.0794,0.34396 0.13229,0.58208 0.0529,0.23813 0.10584,0.47625 0.15875,0.71438 0.0529,0.23812 0.0794,0.42333 0.0794,0.58208 0.0265,-0.15875 0.0529,-0.34396 0.0794,-0.58208 0.0265,-0.23813 0.0794,-0.47625 0.13229,-0.71438 0.0529,-0.23812 0.10584,-0.42333 0.1323,-0.58208 l 1.11125,-4.10104 z"
       id="path10"
       style="stroke-width:0.264583" />
    <path
       d="m 127.26458,119.51229 h -4.78896 v -8.04333 h 4.78896 v 1.74625 h -2.61937 v 1.27 h 2.40771 v 1.74625 h -2.40771 v 1.53458 h 2.61937 c 0,-0.0265 0,1.74625 0,1.74625 z"
       id="path11"
       style="stroke-width:0.264583" />
    <path
       d="m 136.33979,119.51229 h -2.8575 l -2.93687,-5.68854 h -0.0529 c 0.0265,0.18521 0.0265,0.37042 0.0529,0.60854 0.0264,0.23813 0.0264,0.47625 0.0264,0.74083 0,0.23813 0.0265,0.47625 0.0265,0.68792 v 3.62479 h -1.93146 v -8.01687 h 2.83105 l 2.93687,5.58271 h 0.0265 c 0,-0.18521 -0.0265,-0.37042 -0.0265,-0.60855 0,-0.23812 -0.0265,-0.47625 -0.0265,-0.71437 0,-0.23813 0,-0.44979 0,-0.635 v -3.62479 h 1.93146 z"
       id="path12"
       style="stroke-width:0.264583" />
    <path
       d="m 144.91229,115.33187 c 0,0.92605 -0.18521,1.7198 -0.52917,2.32834 -0.34395,0.60854 -0.84666,1.08479 -1.48166,1.40229 -0.635,0.3175 -1.37584,0.47625 -2.2225,0.47625 h -2.61938 v -8.06979 h 2.77813 c 0.87312,0 1.5875,0.15875 2.19604,0.44979 0.60854,0.29104 1.05833,0.74083 1.37583,1.29646 0.34396,0.58208 0.50271,1.27 0.50271,2.11666 z m -2.24896,0.0794 c 0,-0.47625 -0.0529,-0.89958 -0.18521,-1.21708 -0.13229,-0.3175 -0.3175,-0.55563 -0.58208,-0.71438 -0.26458,-0.15875 -0.58208,-0.23812 -0.97896,-0.23812 h -0.66146 v 4.49791 h 0.47625 c 0.66146,0 1.13771,-0.18521 1.45521,-0.58208 0.3175,-0.37042 0.44979,-0.97896 0.47625,-1.74625 z"
       id="path13"
       style="stroke-width:0.264583" />
    <path
       d="m 146.34104,119.51229 v -8.04333 h 2.19604 v 8.04333 z"
       id="path14"
       style="stroke-width:0.264583" />
    <path
       d="m 157.95625,119.51229 h -2.8575 l -2.93688,-5.66208 h -0.0529 c 0.0265,0.18521 0.0265,0.37041 0.0529,0.60854 0.0265,0.23812 0.0265,0.47625 0.0265,0.74083 0,0.23813 0.0265,0.47625 0.0265,0.68792 v 3.62479 h -1.93146 v -8.04333 h 2.83104 l 2.93688,5.60916 h 0.0265 c 0,-0.1852 -0.0265,-0.37041 -0.0265,-0.60854 0,-0.23812 -0.0265,-0.47625 -0.0265,-0.71437 0,-0.23813 0,-0.44979 0,-0.635 v -3.65125 h 1.93146 z"
       id="path15"
       style="stroke-width:0.264583" />
    <path
       d="m 162.93042,114.80271 h 3.46604 v 4.33916 c -0.42334,0.1323 -0.89959,0.26459 -1.42875,0.34396 -0.52917,0.0794 -1.08479,0.13229 -1.69334,0.13229 -0.76729,0 -1.4552,-0.15875 -2.03729,-0.44979 -0.58208,-0.29104 -1.03187,-0.76729 -1.37583,-1.37583 -0.3175,-0.60854 -0.50271,-1.40229 -0.50271,-2.32833 0,-0.84667 0.15875,-1.56105 0.47625,-2.19605 0.3175,-0.60854 0.79375,-1.08479 1.42875,-1.42875 0.635,-0.34395 1.40229,-0.5027 2.32833,-0.5027 0.50271,0 0.97896,0.0529 1.42875,0.13229 0.4498,0.10583 0.84667,0.21166 1.19063,0.37041 l -0.68792,1.69334 c -0.29104,-0.13229 -0.58208,-0.23813 -0.89958,-0.3175 -0.3175,-0.0794 -0.66146,-0.10584 -1.00542,-0.10584 -0.47625,0 -0.87312,0.10584 -1.16416,0.3175 -0.29105,0.21167 -0.50271,0.50271 -0.635,0.87313 -0.1323,0.37042 -0.21167,0.76729 -0.21167,1.19062 0,0.50271 0.0794,0.92605 0.21167,1.27 0.13229,0.34396 0.34395,0.60855 0.635,0.79375 0.26458,0.18521 0.60854,0.26459 1.00541,0.26459 0.13229,0 0.29104,0 0.47625,-0.0265 0.18521,-0.0265 0.3175,-0.0529 0.42334,-0.0529 v -1.27 h -1.42875 z"
       id="path16"
       style="stroke-width:0.264583" />
    <path
       d="m 119.59167,130.81 -0.39688,-1.50813 h -2.61937 l -0.39688,1.50813 h -2.38125 l 2.61938,-8.09625 h 2.91041 l 2.67229,8.09625 z m -0.84667,-3.30729 -0.34396,-1.32292 c -0.0265,-0.13229 -0.0794,-0.34396 -0.15875,-0.60854 -0.0794,-0.26458 -0.13229,-0.55563 -0.21167,-0.82021 -0.0794,-0.29104 -0.13229,-0.52917 -0.15875,-0.71437 -0.0264,0.1852 -0.0794,0.42333 -0.13229,0.68791 -0.0529,0.26459 -0.13229,0.52917 -0.18521,0.79375 -0.0529,0.26459 -0.13229,0.47625 -0.15875,0.66146 l -0.34395,1.32292 z"
       id="path17"
       style="stroke-width:0.264583" />
    <path
       d="m 122.84604,130.81 v -8.04333 h 2.19604 V 130.81 Z"
       id="path18"
       style="stroke-width:0.264583" />
    <path
       d="m 133.58812,126.60312 c 0,0.92605 -0.1852,1.7198 -0.52916,2.32834 -0.34396,0.60854 -0.84667,1.08479 -1.48167,1.40229 -0.635,0.3175 -1.37583,0.47625 -2.2225,0.47625 h -2.59292 v -8.04333 H 129.54 c 0.87312,0 1.5875,0.15875 2.19604,0.44979 0.60854,0.29104 1.05833,0.74083 1.37583,1.29646 0.34396,0.55562 0.47625,1.27 0.47625,2.0902 z m -2.24895,0.0794 c 0,-0.50271 -0.0529,-0.89958 -0.18521,-1.21708 -0.13229,-0.3175 -0.3175,-0.55563 -0.58209,-0.71438 -0.26458,-0.15875 -0.58208,-0.23812 -0.97895,-0.23812 h -0.635 v 4.49791 h 0.47625 c 0.66145,0 1.1377,-0.18521 1.4552,-0.58208 0.29105,-0.37042 0.4498,-0.9525 0.4498,-1.74625 z"
       id="path19"
       style="stroke-width:0.264583" />
  </g>
</svg>
