<?xml version="1.0" encoding="utf-8"?>
<!-- Generator: Adobe Illustrator 29.3.1, SVG Export Plug-In . SVG Version: 9.03 Build 55982)  -->
<svg version="1.0" id="Layer_1" xmlns="http://www.w3.org/2000/svg" xmlns:xlink="http://www.w3.org/1999/xlink" x="0px" y="0px"
	 viewBox="0 0 500 450" style="enable-background:new 0 0 500 450;" xml:space="preserve">
<polygon points="149.7,85.2 149.7,156.8 78.1,156.8 8.3,86.9 79.8,15.3 "/>
<polygon points="422.8,358.2 351.2,429.8 281.3,360 281.3,288.4 352.9,288.4 "/>
<polygon points="397.3,273.2 397.3,171.9 266.1,171.9 266.1,40.8 164.9,40.8 164.9,171.9 33.7,171.9 33.7,273.2 164.9,273.2 
	164.9,404.4 266.1,404.4 266.1,273.2 "/>
<path d="M303.7,71.4h-18.1V40.9h18.1v6.6h-9.9v4.8h9.1v6.6h-9.1v5.8h9.9C303.7,64.7,303.7,71.4,303.7,71.4z"/>
<path d="M322.3,71.4L316,49.5h-0.2c0.1,0.6,0.1,1.3,0.2,2.3s0.1,2,0.2,3.1s0.1,2.2,0.1,3.2v13.2H309V40.9h11l6.4,21.6h0.2l6.2-21.6
	h11v30.4h-7.6V58c0-1,0-2,0-3.1s0.1-2.1,0.1-3.1c0-1,0.1-1.8,0.1-2.3h-0.2l-6.1,21.9H322.3L322.3,71.4z"/>
<path d="M360.8,41c3.9,0,6.8,0.8,8.7,2.5s2.9,4.1,2.9,7.2c0,1.4-0.2,2.7-0.6,4c-0.4,1.3-1,2.4-1.9,3.4s-2.1,1.8-3.6,2.4
	c-1.5,0.6-3.3,0.9-5.5,0.9h-2.3v10.1h-8.2V40.9L360.8,41L360.8,41z M360.6,47.6h-2.1v7h1.6c0.7,0,1.4-0.1,2-0.4
	c0.6-0.2,1.1-0.6,1.5-1.2s0.5-1.3,0.5-2.2s-0.3-1.7-0.9-2.3C362.7,47.9,361.8,47.6,360.6,47.6L360.6,47.6z"/>
<path d="M395.9,71.4l-1.5-5.7h-9.9l-1.5,5.7h-9l9.9-30.6h11l10.1,30.6H395.9L395.9,71.4z M392.6,58.9l-1.3-5
	c-0.1-0.5-0.3-1.3-0.6-2.3c-0.3-1-0.5-2-0.8-3.1c-0.3-1.1-0.5-2-0.6-2.7c-0.1,0.7-0.3,1.5-0.5,2.6s-0.5,2-0.7,3
	c-0.2,1-0.5,1.8-0.6,2.5l-1.3,5H392.6L392.6,58.9z"/>
<path d="M421.6,71.4h-8.2V47.7h-7.4v-6.7H429v6.7h-7.4V71.4z"/>
<path d="M459.4,71.4h-8.3V59h-9.6v12.4h-8.3V40.9h8.3v11.3h9.6V40.9h8.3V71.4z"/>
<path d="M476.9,52.2l5.2-11.3h8.9l-10,18.5v11.9h-8.3V59.7l-10-18.8h9L476.9,52.2L476.9,52.2z"/>
<path d="M311.9,83.6l-10,30.4h-9.7l-9.9-30.4h9.2l4.1,15.4c0.1,0.6,0.3,1.3,0.5,2.2c0.2,0.9,0.4,1.8,0.6,2.7
	c0.2,0.9,0.3,1.6,0.3,2.2c0.1-0.6,0.2-1.3,0.3-2.2s0.3-1.8,0.5-2.7s0.4-1.6,0.5-2.2l4.2-15.5L311.9,83.6L311.9,83.6z"/>
<path d="M333.3,114h-18.1V83.6h18.1v6.6h-9.9V95h9.1v6.6h-9.1v5.8h9.9C333.3,107.3,333.3,114,333.3,114z"/>
<path d="M367.6,114h-10.8l-11.1-21.5h-0.2c0.1,0.7,0.1,1.4,0.2,2.3c0.1,0.9,0.1,1.8,0.1,2.8c0,0.9,0.1,1.8,0.1,2.6V114h-7.3V83.6
	h10.7l11.1,21.2h0.1c0-0.7-0.1-1.4-0.1-2.3s-0.1-1.8-0.1-2.7c0-0.9,0-1.7,0-2.4V83.6h7.3L367.6,114L367.6,114z"/>
<path d="M400,98.2c0,3.5-0.7,6.5-2,8.8s-3.2,4.1-5.6,5.3c-2.4,1.2-5.2,1.8-8.4,1.8h-9.9V83.6h10.5c3.3,0,6,0.6,8.3,1.7
	c2.3,1.1,4,2.8,5.2,4.9C399.4,92.4,400,95,400,98.2L400,98.2z M391.5,98.5c0-1.8-0.2-3.4-0.7-4.6c-0.5-1.2-1.2-2.1-2.2-2.7
	c-1-0.6-2.2-0.9-3.7-0.9h-2.4v17h1.8c2.5,0,4.3-0.7,5.5-2.2C390.9,103.6,391.4,101.4,391.5,98.5L391.5,98.5z"/>
<path d="M405.5,114V83.6h8.3V114H405.5z"/>
<path d="M449.3,114h-10.8l-11.1-21.5h-0.2c0.1,0.7,0.1,1.4,0.2,2.3s0.1,1.8,0.1,2.8c0,0.9,0.1,1.8,0.1,2.6V114h-7.3V83.6H431
	l11.1,21.2h0.1c0-0.7-0.1-1.4-0.1-2.3s-0.1-1.8-0.1-2.7c0-0.9,0-1.7,0-2.4V83.6h7.3L449.3,114L449.3,114z"/>
<path d="M468.1,96.2h13.1v16.4c-1.6,0.5-3.4,1-5.4,1.3c-2,0.3-4.1,0.5-6.4,0.5c-2.9,0-5.5-0.6-7.7-1.7c-2.2-1.1-3.9-2.9-5.2-5.2
	c-1.2-2.3-1.9-5.3-1.9-8.8c0-3.2,0.6-5.9,1.8-8.3c1.2-2.3,3-4.1,5.4-5.4s5.3-1.9,8.8-1.9c1.9,0,3.7,0.2,5.4,0.5
	c1.7,0.4,3.2,0.8,4.5,1.4l-2.6,6.4c-1.1-0.5-2.2-0.9-3.4-1.2c-1.2-0.3-2.5-0.4-3.8-0.4c-1.8,0-3.3,0.4-4.4,1.2s-1.9,1.9-2.4,3.3
	c-0.5,1.4-0.8,2.9-0.8,4.5c0,1.9,0.3,3.5,0.8,4.8c0.5,1.3,1.3,2.3,2.4,3c1,0.7,2.3,1,3.8,1c0.5,0,1.1,0,1.8-0.1
	c0.7-0.1,1.2-0.2,1.6-0.2v-4.8h-5.4L468.1,96.2L468.1,96.2z"/>
<path d="M304.3,156.7l-1.5-5.7h-9.9l-1.5,5.7h-9l9.9-30.6h11l10.1,30.6H304.3L304.3,156.7z M301.1,144.2l-1.3-5
	c-0.1-0.5-0.3-1.3-0.6-2.3c-0.3-1-0.5-2.1-0.8-3.1c-0.3-1.1-0.5-2-0.6-2.7c-0.1,0.7-0.3,1.6-0.5,2.6s-0.5,2-0.7,3
	c-0.2,1-0.5,1.8-0.6,2.5l-1.3,5H301.1L301.1,144.2z"/>
<path d="M316.6,156.7v-30.4h8.3v30.4H316.6z"/>
<path d="M357.2,140.8c0,3.5-0.7,6.5-2,8.8s-3.2,4.1-5.6,5.3c-2.4,1.2-5.2,1.8-8.4,1.8h-9.9v-30.4h10.5c3.3,0,6,0.6,8.3,1.7
	c2.3,1.1,4,2.8,5.2,4.9C356.7,135,357.2,137.7,357.2,140.8L357.2,140.8z M348.7,141.1c0-1.9-0.2-3.4-0.7-4.6
	c-0.5-1.2-1.2-2.1-2.2-2.7c-1-0.6-2.2-0.9-3.7-0.9h-2.4v17.1h1.8c2.5,0,4.3-0.7,5.5-2.2C348.1,146.3,348.7,144.1,348.7,141.1
	L348.7,141.1z"/>
</svg>
