<?xml version="1.0" encoding="UTF-8" standalone="no"?>
<!-- Generator: Adobe Illustrator 15.1.0, SVG Export Plug-In . SVG Version: 6.00 Build 0)  -->

<svg
   version="1.2"
   id="svg2"
   x="0px"
   y="0px"
   width="900px"
   height="900px"
   viewBox="0 0 900 900"
   overflow="inherit"
   xml:space="preserve"
   sodipodi:docname="tiger.svg"
   inkscape:version="1.3.2 (091e20e, 2023-11-25)"
   xmlns:inkscape="http://www.inkscape.org/namespaces/inkscape"
   xmlns:sodipodi="http://sodipodi.sourceforge.net/DTD/sodipodi-0.dtd"
   xmlns="http://www.w3.org/2000/svg"
   xmlns:svg="http://www.w3.org/2000/svg"><defs
   id="defs1" /><sodipodi:namedview
   id="namedview1"
   pagecolor="#ffffff"
   bordercolor="#000000"
   borderopacity="0.25"
   inkscape:showpageshadow="2"
   inkscape:pageopacity="0.0"
   inkscape:pagecheckerboard="0"
   inkscape:deskcolor="#d1d1d1"
   inkscape:zoom="0.35"
   inkscape:cx="450"
   inkscape:cy="450"
   inkscape:window-width="1392"
   inkscape:window-height="1212"
   inkscape:window-x="694"
   inkscape:window-y="59"
   inkscape:window-maximized="0"
   inkscape:current-layer="svg2" />















































































































































































































































<polygon
   points="13.9,72.1 85.4,0.5 155.3,70.4 155.3,142 83.7,142 "
   id="polygon1"
   transform="translate(-4.1857143,14.785714)" /><polygon
   points="286.9,273.6 358.5,273.6 428.4,343.4 356.8,415 286.9,345.2 "
   id="polygon2"
   transform="translate(-4.1857143,14.785714)" /><polygon
   points="402.9,157.1 271.7,157.1 271.7,26 170.5,26 170.5,157.1 39.3,157.1 39.3,258.4 170.5,258.4 170.5,389.6 271.7,389.6 271.7,258.4 402.9,258.4 "
   id="polygon3"
   transform="translate(-4.1857143,14.785714)" /><path
   d="M 305.11431,71.385714 H 287.0143 v -30.39999 h 18.10001 v 6.6 h -9.90002 v 4.8 h 9.1 v 6.6 h -9.1 v 5.79999 h 9.90002 c 0,-0.10016 0,6.6 0,6.6 z"
   id="path3"
   style="stroke-width:0.999999" /><path
   d="m 323.71431,71.385714 -6.20001,-21.89998 h -0.19994 c 0.10016,0.6 0.10016,1.29997 0.19994,2.29999 0.10015,0.99999 0.10015,1.99998 0.19993,3.10001 0.0998,1.09999 0.0998,2.19998 0.0998,3.19997 v 13.2 h -7.29997 v -30.29998 h 10.99998 l 6.40002,21.6 h 0.19994 l 6.20001,-21.6 h 11.00002 v 30.39999 H 337.714 v -13.40001 c 0,-0.99999 0,-1.99998 0,-3.09997 0,-1.10003 0.10016,-2.10002 0.10016,-3.10001 0,-1.00002 0.10016,-1.8 0.10016,-2.29999 h -0.19994 l -6.10003,21.89998 z"
   id="path4"
   style="stroke-width:0.999999" /><path
   d="m 362.21428,40.985724 c 3.90002,0 6.80001,0.79998 8.70002,2.50001 1.9,1.69999 2.89999,4.09999 2.89999,7.2 0,1.39997 -0.19994,2.69998 -0.6,3.99998 -0.39999,1.30001 -0.99999,2.4 -1.90001,3.39999 -0.89998,1.00003 -2.09998,1.8 -3.6,2.4 -1.49998,0.6 -3.29998,0.90002 -5.5,0.90002 h -2.4 v 10.09999 h -8.19999 v -30.49999 z m -0.19994,6.6 h -2.10002 v 6.99999 h 1.60003 c 0.69996,0 1.39997,-0.10016 1.99997,-0.39999 0.6,-0.19994 1.09999,-0.6 1.50002,-1.2 0.39999,-0.6 0.49999,-1.30001 0.49999,-2.20002 0,-0.89999 -0.30009,-1.7 -0.90002,-2.3 -0.49999,-0.6 -1.39997,-0.89998 -2.59997,-0.89998 z"
   id="path5"
   style="stroke-width:0.999999" /><path
   d="m 397.3143,71.385714 -1.50002,-5.69998 h -9.89998 l -1.50002,5.69998 h -9 l 9.90002,-30.6 h 11.00001 l 10.09999,30.6 z m -3.30002,-12.5 -1.29997,-5.00001 c -0.10016,-0.49999 -0.3001,-1.3 -0.6,-2.29999 -0.3001,-0.99999 -0.50003,-2.00001 -0.80001,-3.10001 -0.3001,-1.09999 -0.5,-1.99997 -0.6,-2.69998 -0.10016,0.70001 -0.3001,1.59999 -0.5,2.59998 -0.19993,1.00002 -0.49999,2.00001 -0.7,3 -0.19994,1.00002 -0.5,1.8 -0.6,2.5 l -1.30001,5.00001 z"
   id="path6"
   style="stroke-width:0.999999" /><path
   d="m 423.01429,71.385714 h -8.19999 v -23.69998 h -7.40001 v -6.70001 h 23.10002 v 6.70001 h -7.40001 v 23.69998 z"
   id="path7"
   style="stroke-width:0.999999" /><path
   d="m 460.81429,71.385714 h -8.29999 v -12.39999 h -9.6 v 12.39999 h -8.3 v -30.39999 h 8.3 v 11.29999 h 9.6 v -11.29999 h 8.29999 z"
   id="path8"
   style="stroke-width:0.999999" /><path
   d="m 478.3143,52.185714 5.19998,-11.3 h 8.9 l -9.99999,18.6 v 11.9 h -8.29999 v -11.69998 l -9.99999,-18.80002 h 9 z"
   id="path9"
   style="stroke-width:0.999999" /><path
   d="m 313.31429,83.585724 -9.99998,30.399986 h -9.70001 l -9.90002,-30.399986 h 9.20001 l 4.1,15.39999 c 0.10016,0.6 0.30009,1.299996 0.49999,2.199986 0.19994,0.90001 0.40003,1.8 0.6,2.70001 0.19994,0.89999 0.3001,1.59999 0.3001,2.19999 0.10015,-0.6 0.19993,-1.3 0.30009,-2.19999 0.10016,-0.90001 0.3001,-1.8 0.49999,-2.70001 0.19994,-0.89999 0.40003,-1.599986 0.50004,-2.199986 l 4.2,-15.5 z"
   id="path10"
   style="stroke-width:0.999999" /><path
   d="m 334.71428,113.98571 h -18.1 V 83.585724 h 18.1 v 6.6 h -9.89998 v 4.8 h 9.10001 v 6.599996 h -9.10001 v 5.79999 h 9.89998 c 0,-0.10016 0,6.6 0,6.6 z"
   id="path11"
   style="stroke-width:0.999999" /><path
   d="m 369.01429,113.98571 h -10.8 L 347.11431,92.485714 h -0.19994 c 0.10016,0.70001 0.10016,1.40002 0.19994,2.3 0.0998,0.90002 0.0998,1.8 0.0998,2.79999 0,0.90001 0.10015,1.8 0.10015,2.600006 v 13.69999 h -7.3 V 83.585724 h 10.70003 l 11.09998,21.100006 h 0.10016 c 0,-0.70001 -0.10016,-1.40002 -0.10016,-2.30003 0,-0.89999 -0.10016,-1.8 -0.10016,-2.699986 0,-0.90001 0,-1.69999 0,-2.4 v -13.69999 h 7.30001 z"
   id="path12"
   style="stroke-width:0.999999" /><path
   d="m 401.41429,98.185704 c 0,3.500026 -0.70001,6.500026 -2.00001,8.800016 -1.29997,2.29999 -3.19998,4.09999 -5.59998,5.29999 -2.4,1.2 -5.20002,1.8 -8.4,1.8 h -9.90002 V 83.585724 h 10.50002 c 3.29998,0 6,0.6 8.3,1.69999 2.29999,1.1 3.99998,2.79999 5.19998,4.90001 1.30001,2.19999 1.90001,4.8 1.90001,7.99998 z m -8.50001,0.30009 c 0,-1.8 -0.19993,-3.39999 -0.7,-4.59999 -0.5,-1.2 -1.2,-2.10002 -2.19999,-2.70002 -0.99999,-0.6 -2.19999,-0.89998 -3.70001,-0.89998 h -2.5 v 16.999976 h 1.8 c 2.5,0 4.3,-0.70001 5.5,-2.19999 1.2,-1.40001 1.7,-3.70001 1.8,-6.599996 z"
   id="path13"
   style="stroke-width:0.999999" /><path
   d="M 406.81429,113.98571 V 83.585724 h 8.29999 v 30.399986 z"
   id="path14"
   style="stroke-width:0.999999" /><path
   d="m 450.7143,113.98571 h -10.8 L 428.81428,92.585724 h -0.19994 c 0.10016,0.70001 0.10016,1.39998 0.19994,2.29999 0.10015,0.89999 0.10015,1.8 0.10015,2.79999 0,0.90002 0.10016,1.8 0.10016,2.600006 v 13.7 h -7.3 V 83.585724 h 10.69999 L 443.5146,104.7857 h 0.10016 c 0,-0.69997 -0.10016,-1.39998 -0.10016,-2.3 0,-0.89998 -0.10016,-1.8 -0.10016,-2.699976 0,-0.90002 0,-1.69999 0,-2.4 v -13.8 h 7.30001 z"
   id="path15"
   style="stroke-width:0.999999" /><path
   d="M 469.51431,96.185724 H 482.6143 V 112.5857 c -1.60002,0.50003 -3.40002,1.00002 -5.4,1.3 -2.00001,0.3001 -4.09999,0.5 -6.40002,0.5 -2.9,0 -5.49997,-0.6 -7.7,-1.7 -2.19998,-1.09999 -3.89998,-2.89999 -5.19998,-5.19999 -1.2,-2.29999 -1.90001,-5.29999 -1.90001,-8.799976 0,-3.20002 0.6,-5.90003 1.8,-8.30003 1.2,-2.3 3,-4.1 5.4,-5.4 2.4,-1.29997 5.29999,-1.89997 8.79999,-1.89997 1.9,0 3.7,0.19993 5.4,0.49999 1.70003,0.39999 3.20001,0.79998 4.50002,1.39998 l -2.60002,6.40002 c -1.09999,-0.49999 -2.19998,-0.90002 -3.39998,-1.2 -1.2,-0.30009 -2.50001,-0.40002 -3.80002,-0.40002 -1.8,0 -3.29998,0.40002 -4.39997,1.2 -1.10003,0.80001 -1.90001,1.9 -2.4,3.30001 -0.50003,1.40002 -0.80001,2.9 -0.80001,4.49999 0,1.899996 0.30009,3.500026 0.80001,4.799996 0.49999,1.3 1.29997,2.30003 2.4,3 0.99999,0.7 2.29999,1.00002 3.79997,1.00002 0.5,0 1.1,0 1.8,-0.10016 0.70001,-0.10015 1.2,-0.19993 1.60003,-0.19993 v -4.8 h -5.4 z"
   id="path16"
   style="stroke-width:0.999999" /><path
   d="m 305.71431,156.68572 -1.50002,-5.70002 h -9.89998 l -1.50002,5.70002 h -9 l 9.90002,-30.6 h 10.99997 l 10.1,30.6 z m -3.20002,-12.5 -1.3,-5.00001 c -0.10016,-0.49999 -0.3001,-1.30001 -0.6,-2.29999 -0.3001,-0.99999 -0.5,-2.10002 -0.80001,-3.10001 -0.3001,-1.09999 -0.5,-2.00001 -0.6,-2.69998 -0.0998,0.69997 -0.3001,1.59999 -0.5,2.59997 -0.19993,1.00003 -0.49999,2.00002 -0.7,3 -0.19994,1.00003 -0.5,1.8 -0.6,2.50001 l -1.29997,5.00001 z"
   id="path17"
   style="stroke-width:0.999999" /><path
   d="m 318.01429,156.68572 v -30.39999 h 8.29999 v 30.39999 z"
   id="path18"
   style="stroke-width:0.999999" /><path
   d="m 358.61428,140.7857 c 0,3.50003 -0.69997,6.50003 -1.99998,8.80002 -1.3,2.3 -3.20001,4.1 -5.60001,5.3 -2.4,1.2 -5.19999,1.8 -8.4,1.8 h -9.80001 v -30.39999 h 10.50002 c 3.29998,0 6,0.6 8.29999,1.69999 2.29999,1.1 3.99999,2.79999 5.19999,4.90001 1.3,2.09998 1.8,4.8 1.8,7.89997 z m -8.49997,0.30009 c 0,-1.90001 -0.19994,-3.39999 -0.70001,-4.59999 -0.49999,-1.2 -1.2,-2.10002 -2.20002,-2.70002 -0.99999,-0.6 -2.19999,-0.89998 -3.69997,-0.89998 h -2.4 v 16.99998 h 1.8 c 2.49997,0 4.29997,-0.70001 5.49997,-2.19999 1.10003,-1.40001 1.70003,-3.6 1.70003,-6.6 z"
   id="path19"
   style="stroke-width:0.999999" /></svg>
